<svg xmlns="http://www.w3.org/2000/svg" viewBox="0 0 800 800" width="800" height="800">
<defs>
  <linearGradient id="terracotta-dotsbg" x1="0" y1="0" x2="0.4" y2="1"><stop offset="0" stop-color="#F3E3CF"/><stop offset="1" stop-color="#E8B79A"/></linearGradient>
  <radialGradient id="terracotta-dotssun" cx=".8" cy=".15" r=".6"><stop offset="0" stop-color="#fff" stop-opacity=".55"/><stop offset="1" stop-color="#fff" stop-opacity="0"/></radialGradient>
  
</defs>
<rect width="800" height="800" fill="url(#terracotta-dotsbg)"/>
<rect width="800" height="800" fill="url(#terracotta-dotssun)"/>
<g transform="translate(160,462.6) rotate(-14)">
      <rect x="-58.88" y="-180.2832" width="117.76" height="960" rx="58.88" fill="#F2D2BC"/>
      <rect x="-58.88" y="-180.2832" width="25.9072" height="960" rx="12.9536" fill="#000" opacity=".05"/>
      <clipPath id="terracotta-dotsn0"><path d="M-46,0 L-46,-64.17 C-46,-121.21 -14.72,-142.6 0,-142.6 C14.72,-142.6 46,-121.21 46,-64.17 L46,0 Q0,20.24 -46,0 Z"/></clipPath>
      <g clip-path="url(#terracotta-dotsn0)"><rect x="-200" y="-400" width="400" height="500" fill="#C9603F"/><circle cx="-79.12" cy="-142.6" r="5.52" fill="#FBF4EA"/><circle cx="-53.35999999999999" cy="-142.6" r="5.52" fill="#FBF4EA"/><circle cx="-27.599999999999987" cy="-142.6" r="5.52" fill="#FBF4EA"/><circle cx="-1.8399999999999874" cy="-142.6" r="5.52" fill="#FBF4EA"/><circle cx="23.920000000000016" cy="-142.6" r="5.52" fill="#FBF4EA"/><circle cx="49.680000000000014" cy="-142.6" r="5.52" fill="#FBF4EA"/><circle cx="75.44000000000001" cy="-142.6" r="5.52" fill="#FBF4EA"/><circle cx="101.20000000000002" cy="-142.6" r="5.52" fill="#FBF4EA"/><circle cx="-79.12" cy="-116.83999999999999" r="5.52" fill="#FBF4EA"/><circle cx="-53.35999999999999" cy="-116.83999999999999" r="5.52" fill="#FBF4EA"/><circle cx="-27.599999999999987" cy="-116.83999999999999" r="5.52" fill="#FBF4EA"/><circle cx="-1.8399999999999874" cy="-116.83999999999999" r="5.52" fill="#FBF4EA"/><circle cx="23.920000000000016" cy="-116.83999999999999" r="5.52" fill="#FBF4EA"/><circle cx="49.680000000000014" cy="-116.83999999999999" r="5.52" fill="#FBF4EA"/><circle cx="75.44000000000001" cy="-116.83999999999999" r="5.52" fill="#FBF4EA"/><circle cx="101.20000000000002" cy="-116.83999999999999" r="5.52" fill="#FBF4EA"/><circle cx="-79.12" cy="-91.07999999999998" r="5.52" fill="#FBF4EA"/><circle cx="-53.35999999999999" cy="-91.07999999999998" r="5.52" fill="#FBF4EA"/><circle cx="-27.599999999999987" cy="-91.07999999999998" r="5.52" fill="#FBF4EA"/><circle cx="-1.8399999999999874" cy="-91.07999999999998" r="5.52" fill="#FBF4EA"/><circle cx="23.920000000000016" cy="-91.07999999999998" r="5.52" fill="#FBF4EA"/><circle cx="49.680000000000014" cy="-91.07999999999998" r="5.52" fill="#FBF4EA"/><circle cx="75.44000000000001" cy="-91.07999999999998" r="5.52" fill="#FBF4EA"/><circle cx="101.20000000000002" cy="-91.07999999999998" r="5.52" fill="#FBF4EA"/><circle cx="-79.12" cy="-65.31999999999998" r="5.52" fill="#FBF4EA"/><circle cx="-53.35999999999999" cy="-65.31999999999998" r="5.52" fill="#FBF4EA"/><circle cx="-27.599999999999987" cy="-65.31999999999998" r="5.52" fill="#FBF4EA"/><circle cx="-1.8399999999999874" cy="-65.31999999999998" r="5.52" fill="#FBF4EA"/><circle cx="23.920000000000016" cy="-65.31999999999998" r="5.52" fill="#FBF4EA"/><circle cx="49.680000000000014" cy="-65.31999999999998" r="5.52" fill="#FBF4EA"/><circle cx="75.44000000000001" cy="-65.31999999999998" r="5.52" fill="#FBF4EA"/><circle cx="101.20000000000002" cy="-65.31999999999998" r="5.52" fill="#FBF4EA"/><circle cx="-79.12" cy="-39.559999999999974" r="5.52" fill="#FBF4EA"/><circle cx="-53.35999999999999" cy="-39.559999999999974" r="5.52" fill="#FBF4EA"/><circle cx="-27.599999999999987" cy="-39.559999999999974" r="5.52" fill="#FBF4EA"/><circle cx="-1.8399999999999874" cy="-39.559999999999974" r="5.52" fill="#FBF4EA"/><circle cx="23.920000000000016" cy="-39.559999999999974" r="5.52" fill="#FBF4EA"/><circle cx="49.680000000000014" cy="-39.559999999999974" r="5.52" fill="#FBF4EA"/><circle cx="75.44000000000001" cy="-39.559999999999974" r="5.52" fill="#FBF4EA"/><circle cx="101.20000000000002" cy="-39.559999999999974" r="5.52" fill="#FBF4EA"/><circle cx="-79.12" cy="-13.799999999999972" r="5.52" fill="#FBF4EA"/><circle cx="-53.35999999999999" cy="-13.799999999999972" r="5.52" fill="#FBF4EA"/><circle cx="-27.599999999999987" cy="-13.799999999999972" r="5.52" fill="#FBF4EA"/><circle cx="-1.8399999999999874" cy="-13.799999999999972" r="5.52" fill="#FBF4EA"/><circle cx="23.920000000000016" cy="-13.799999999999972" r="5.52" fill="#FBF4EA"/><circle cx="49.680000000000014" cy="-13.799999999999972" r="5.52" fill="#FBF4EA"/><circle cx="75.44000000000001" cy="-13.799999999999972" r="5.52" fill="#FBF4EA"/><circle cx="101.20000000000002" cy="-13.799999999999972" r="5.52" fill="#FBF4EA"/></g>
      <path d="M-46,0 L-46,-64.17 C-46,-121.21 -14.72,-142.6 0,-142.6 C14.72,-142.6 46,-121.21 46,-64.17 L46,0 Q0,20.24 -46,0 Z" fill="none" stroke="#000" stroke-opacity=".08" stroke-width="2"/>
      <path d="M-20.24,-35.65 C-22.08,-85.55999999999999 -12.88,-116.93199999999999 -3.68,-128.34" stroke="#fff" stroke-opacity=".55" stroke-width="6.44" stroke-linecap="round" fill="none"/>
    </g><g transform="translate(280,363) rotate(-6)">
      <rect x="-64" y="-195.96" width="128" height="960" rx="64" fill="#F2D2BC"/>
      <rect x="-64" y="-195.96" width="28.16" height="960" rx="14.08" fill="#000" opacity=".05"/>
      <clipPath id="terracotta-dotsn1"><path d="M-50,0 L-50,-69.75 C-50,-131.75 -16,-155 0,-155 C16,-155 50,-131.75 50,-69.75 L50,0 Q0,22 -50,0 Z"/></clipPath>
      <g clip-path="url(#terracotta-dotsn1)"><rect x="-200" y="-400" width="400" height="500" fill="#C9603F"/><circle cx="-86" cy="-155" r="6" fill="#FBF4EA"/><circle cx="-58" cy="-155" r="6" fill="#FBF4EA"/><circle cx="-30" cy="-155" r="6" fill="#FBF4EA"/><circle cx="-1.9999999999999947" cy="-155" r="6" fill="#FBF4EA"/><circle cx="26.000000000000007" cy="-155" r="6" fill="#FBF4EA"/><circle cx="54.000000000000014" cy="-155" r="6" fill="#FBF4EA"/><circle cx="82.00000000000001" cy="-155" r="6" fill="#FBF4EA"/><circle cx="110.00000000000001" cy="-155" r="6" fill="#FBF4EA"/><circle cx="-86" cy="-127" r="6" fill="#FBF4EA"/><circle cx="-58" cy="-127" r="6" fill="#FBF4EA"/><circle cx="-30" cy="-127" r="6" fill="#FBF4EA"/><circle cx="-1.9999999999999947" cy="-127" r="6" fill="#FBF4EA"/><circle cx="26.000000000000007" cy="-127" r="6" fill="#FBF4EA"/><circle cx="54.000000000000014" cy="-127" r="6" fill="#FBF4EA"/><circle cx="82.00000000000001" cy="-127" r="6" fill="#FBF4EA"/><circle cx="110.00000000000001" cy="-127" r="6" fill="#FBF4EA"/><circle cx="-86" cy="-99" r="6" fill="#FBF4EA"/><circle cx="-58" cy="-99" r="6" fill="#FBF4EA"/><circle cx="-30" cy="-99" r="6" fill="#FBF4EA"/><circle cx="-1.9999999999999947" cy="-99" r="6" fill="#FBF4EA"/><circle cx="26.000000000000007" cy="-99" r="6" fill="#FBF4EA"/><circle cx="54.000000000000014" cy="-99" r="6" fill="#FBF4EA"/><circle cx="82.00000000000001" cy="-99" r="6" fill="#FBF4EA"/><circle cx="110.00000000000001" cy="-99" r="6" fill="#FBF4EA"/><circle cx="-86" cy="-71" r="6" fill="#FBF4EA"/><circle cx="-58" cy="-71" r="6" fill="#FBF4EA"/><circle cx="-30" cy="-71" r="6" fill="#FBF4EA"/><circle cx="-1.9999999999999947" cy="-71" r="6" fill="#FBF4EA"/><circle cx="26.000000000000007" cy="-71" r="6" fill="#FBF4EA"/><circle cx="54.000000000000014" cy="-71" r="6" fill="#FBF4EA"/><circle cx="82.00000000000001" cy="-71" r="6" fill="#FBF4EA"/><circle cx="110.00000000000001" cy="-71" r="6" fill="#FBF4EA"/><circle cx="-86" cy="-43" r="6" fill="#FBF4EA"/><circle cx="-58" cy="-43" r="6" fill="#FBF4EA"/><circle cx="-30" cy="-43" r="6" fill="#FBF4EA"/><circle cx="-1.9999999999999947" cy="-43" r="6" fill="#FBF4EA"/><circle cx="26.000000000000007" cy="-43" r="6" fill="#FBF4EA"/><circle cx="54.000000000000014" cy="-43" r="6" fill="#FBF4EA"/><circle cx="82.00000000000001" cy="-43" r="6" fill="#FBF4EA"/><circle cx="110.00000000000001" cy="-43" r="6" fill="#FBF4EA"/><circle cx="-86" cy="-14.999999999999996" r="6" fill="#FBF4EA"/><circle cx="-58" cy="-14.999999999999996" r="6" fill="#FBF4EA"/><circle cx="-30" cy="-14.999999999999996" r="6" fill="#FBF4EA"/><circle cx="-1.9999999999999947" cy="-14.999999999999996" r="6" fill="#FBF4EA"/><circle cx="26.000000000000007" cy="-14.999999999999996" r="6" fill="#FBF4EA"/><circle cx="54.000000000000014" cy="-14.999999999999996" r="6" fill="#FBF4EA"/><circle cx="82.00000000000001" cy="-14.999999999999996" r="6" fill="#FBF4EA"/><circle cx="110.00000000000001" cy="-14.999999999999996" r="6" fill="#FBF4EA"/></g>
      <path d="M-50,0 L-50,-69.75 C-50,-131.75 -16,-155 0,-155 C16,-155 50,-131.75 50,-69.75 L50,0 Q0,22 -50,0 Z" fill="none" stroke="#000" stroke-opacity=".08" stroke-width="2"/>
      <path d="M-22,-38.75 C-24,-93 -14.000000000000002,-127.1 -4,-139.5" stroke="#fff" stroke-opacity=".55" stroke-width="7.000000000000001" stroke-linecap="round" fill="none"/>
    </g><g transform="translate(400,321.20000000000005) rotate(0)">
      <rect x="-66.56" y="-203.79840000000002" width="133.12" height="960" rx="66.56" fill="#F2D2BC"/>
      <rect x="-66.56" y="-203.79840000000002" width="29.2864" height="960" rx="14.6432" fill="#000" opacity=".05"/>
      <clipPath id="terracotta-dotsn2"><path d="M-52,0 L-52,-72.54 C-52,-137.02 -16.64,-161.20000000000002 0,-161.20000000000002 C16.64,-161.20000000000002 52,-137.02 52,-72.54 L52,0 Q0,22.88 -52,0 Z"/></clipPath>
      <g clip-path="url(#terracotta-dotsn2)"><rect x="-200" y="-400" width="400" height="500" fill="#C9603F"/><circle cx="-89.44" cy="-161.20000000000002" r="6.24" fill="#FBF4EA"/><circle cx="-60.31999999999999" cy="-161.20000000000002" r="6.24" fill="#FBF4EA"/><circle cx="-31.19999999999999" cy="-161.20000000000002" r="6.24" fill="#FBF4EA"/><circle cx="-2.079999999999984" cy="-161.20000000000002" r="6.24" fill="#FBF4EA"/><circle cx="27.04000000000002" cy="-161.20000000000002" r="6.24" fill="#FBF4EA"/><circle cx="56.160000000000025" cy="-161.20000000000002" r="6.24" fill="#FBF4EA"/><circle cx="85.28000000000003" cy="-161.20000000000002" r="6.24" fill="#FBF4EA"/><circle cx="114.40000000000003" cy="-161.20000000000002" r="6.24" fill="#FBF4EA"/><circle cx="-89.44" cy="-132.08" r="6.24" fill="#FBF4EA"/><circle cx="-60.31999999999999" cy="-132.08" r="6.24" fill="#FBF4EA"/><circle cx="-31.19999999999999" cy="-132.08" r="6.24" fill="#FBF4EA"/><circle cx="-2.079999999999984" cy="-132.08" r="6.24" fill="#FBF4EA"/><circle cx="27.04000000000002" cy="-132.08" r="6.24" fill="#FBF4EA"/><circle cx="56.160000000000025" cy="-132.08" r="6.24" fill="#FBF4EA"/><circle cx="85.28000000000003" cy="-132.08" r="6.24" fill="#FBF4EA"/><circle cx="114.40000000000003" cy="-132.08" r="6.24" fill="#FBF4EA"/><circle cx="-89.44" cy="-102.96000000000001" r="6.24" fill="#FBF4EA"/><circle cx="-60.31999999999999" cy="-102.96000000000001" r="6.24" fill="#FBF4EA"/><circle cx="-31.19999999999999" cy="-102.96000000000001" r="6.24" fill="#FBF4EA"/><circle cx="-2.079999999999984" cy="-102.96000000000001" r="6.24" fill="#FBF4EA"/><circle cx="27.04000000000002" cy="-102.96000000000001" r="6.24" fill="#FBF4EA"/><circle cx="56.160000000000025" cy="-102.96000000000001" r="6.24" fill="#FBF4EA"/><circle cx="85.28000000000003" cy="-102.96000000000001" r="6.24" fill="#FBF4EA"/><circle cx="114.40000000000003" cy="-102.96000000000001" r="6.24" fill="#FBF4EA"/><circle cx="-89.44" cy="-73.84" r="6.24" fill="#FBF4EA"/><circle cx="-60.31999999999999" cy="-73.84" r="6.24" fill="#FBF4EA"/><circle cx="-31.19999999999999" cy="-73.84" r="6.24" fill="#FBF4EA"/><circle cx="-2.079999999999984" cy="-73.84" r="6.24" fill="#FBF4EA"/><circle cx="27.04000000000002" cy="-73.84" r="6.24" fill="#FBF4EA"/><circle cx="56.160000000000025" cy="-73.84" r="6.24" fill="#FBF4EA"/><circle cx="85.28000000000003" cy="-73.84" r="6.24" fill="#FBF4EA"/><circle cx="114.40000000000003" cy="-73.84" r="6.24" fill="#FBF4EA"/><circle cx="-89.44" cy="-44.72" r="6.24" fill="#FBF4EA"/><circle cx="-60.31999999999999" cy="-44.72" r="6.24" fill="#FBF4EA"/><circle cx="-31.19999999999999" cy="-44.72" r="6.24" fill="#FBF4EA"/><circle cx="-2.079999999999984" cy="-44.72" r="6.24" fill="#FBF4EA"/><circle cx="27.04000000000002" cy="-44.72" r="6.24" fill="#FBF4EA"/><circle cx="56.160000000000025" cy="-44.72" r="6.24" fill="#FBF4EA"/><circle cx="85.28000000000003" cy="-44.72" r="6.24" fill="#FBF4EA"/><circle cx="114.40000000000003" cy="-44.72" r="6.24" fill="#FBF4EA"/><circle cx="-89.44" cy="-15.599999999999994" r="6.24" fill="#FBF4EA"/><circle cx="-60.31999999999999" cy="-15.599999999999994" r="6.24" fill="#FBF4EA"/><circle cx="-31.19999999999999" cy="-15.599999999999994" r="6.24" fill="#FBF4EA"/><circle cx="-2.079999999999984" cy="-15.599999999999994" r="6.24" fill="#FBF4EA"/><circle cx="27.04000000000002" cy="-15.599999999999994" r="6.24" fill="#FBF4EA"/><circle cx="56.160000000000025" cy="-15.599999999999994" r="6.24" fill="#FBF4EA"/><circle cx="85.28000000000003" cy="-15.599999999999994" r="6.24" fill="#FBF4EA"/><circle cx="114.40000000000003" cy="-15.599999999999994" r="6.24" fill="#FBF4EA"/></g>
      <path d="M-52,0 L-52,-72.54 C-52,-137.02 -16.64,-161.20000000000002 0,-161.20000000000002 C16.64,-161.20000000000002 52,-137.02 52,-72.54 L52,0 Q0,22.88 -52,0 Z" fill="none" stroke="#000" stroke-opacity=".08" stroke-width="2"/>
      <path d="M-22.88,-40.300000000000004 C-24.96,-96.72000000000001 -14.560000000000002,-132.184 -4.16,-145.08" stroke="#fff" stroke-opacity=".55" stroke-width="7.280000000000001" stroke-linecap="round" fill="none"/>
    </g><g transform="translate(520,363) rotate(6)">
      <rect x="-64" y="-195.96" width="128" height="960" rx="64" fill="#F2D2BC"/>
      <rect x="-64" y="-195.96" width="28.16" height="960" rx="14.08" fill="#000" opacity=".05"/>
      <clipPath id="terracotta-dotsn3"><path d="M-50,0 L-50,-69.75 C-50,-131.75 -16,-155 0,-155 C16,-155 50,-131.75 50,-69.75 L50,0 Q0,22 -50,0 Z"/></clipPath>
      <g clip-path="url(#terracotta-dotsn3)"><rect x="-200" y="-400" width="400" height="500" fill="#C9603F"/><circle cx="-86" cy="-155" r="6" fill="#FBF4EA"/><circle cx="-58" cy="-155" r="6" fill="#FBF4EA"/><circle cx="-30" cy="-155" r="6" fill="#FBF4EA"/><circle cx="-1.9999999999999947" cy="-155" r="6" fill="#FBF4EA"/><circle cx="26.000000000000007" cy="-155" r="6" fill="#FBF4EA"/><circle cx="54.000000000000014" cy="-155" r="6" fill="#FBF4EA"/><circle cx="82.00000000000001" cy="-155" r="6" fill="#FBF4EA"/><circle cx="110.00000000000001" cy="-155" r="6" fill="#FBF4EA"/><circle cx="-86" cy="-127" r="6" fill="#FBF4EA"/><circle cx="-58" cy="-127" r="6" fill="#FBF4EA"/><circle cx="-30" cy="-127" r="6" fill="#FBF4EA"/><circle cx="-1.9999999999999947" cy="-127" r="6" fill="#FBF4EA"/><circle cx="26.000000000000007" cy="-127" r="6" fill="#FBF4EA"/><circle cx="54.000000000000014" cy="-127" r="6" fill="#FBF4EA"/><circle cx="82.00000000000001" cy="-127" r="6" fill="#FBF4EA"/><circle cx="110.00000000000001" cy="-127" r="6" fill="#FBF4EA"/><circle cx="-86" cy="-99" r="6" fill="#FBF4EA"/><circle cx="-58" cy="-99" r="6" fill="#FBF4EA"/><circle cx="-30" cy="-99" r="6" fill="#FBF4EA"/><circle cx="-1.9999999999999947" cy="-99" r="6" fill="#FBF4EA"/><circle cx="26.000000000000007" cy="-99" r="6" fill="#FBF4EA"/><circle cx="54.000000000000014" cy="-99" r="6" fill="#FBF4EA"/><circle cx="82.00000000000001" cy="-99" r="6" fill="#FBF4EA"/><circle cx="110.00000000000001" cy="-99" r="6" fill="#FBF4EA"/><circle cx="-86" cy="-71" r="6" fill="#FBF4EA"/><circle cx="-58" cy="-71" r="6" fill="#FBF4EA"/><circle cx="-30" cy="-71" r="6" fill="#FBF4EA"/><circle cx="-1.9999999999999947" cy="-71" r="6" fill="#FBF4EA"/><circle cx="26.000000000000007" cy="-71" r="6" fill="#FBF4EA"/><circle cx="54.000000000000014" cy="-71" r="6" fill="#FBF4EA"/><circle cx="82.00000000000001" cy="-71" r="6" fill="#FBF4EA"/><circle cx="110.00000000000001" cy="-71" r="6" fill="#FBF4EA"/><circle cx="-86" cy="-43" r="6" fill="#FBF4EA"/><circle cx="-58" cy="-43" r="6" fill="#FBF4EA"/><circle cx="-30" cy="-43" r="6" fill="#FBF4EA"/><circle cx="-1.9999999999999947" cy="-43" r="6" fill="#FBF4EA"/><circle cx="26.000000000000007" cy="-43" r="6" fill="#FBF4EA"/><circle cx="54.000000000000014" cy="-43" r="6" fill="#FBF4EA"/><circle cx="82.00000000000001" cy="-43" r="6" fill="#FBF4EA"/><circle cx="110.00000000000001" cy="-43" r="6" fill="#FBF4EA"/><circle cx="-86" cy="-14.999999999999996" r="6" fill="#FBF4EA"/><circle cx="-58" cy="-14.999999999999996" r="6" fill="#FBF4EA"/><circle cx="-30" cy="-14.999999999999996" r="6" fill="#FBF4EA"/><circle cx="-1.9999999999999947" cy="-14.999999999999996" r="6" fill="#FBF4EA"/><circle cx="26.000000000000007" cy="-14.999999999999996" r="6" fill="#FBF4EA"/><circle cx="54.000000000000014" cy="-14.999999999999996" r="6" fill="#FBF4EA"/><circle cx="82.00000000000001" cy="-14.999999999999996" r="6" fill="#FBF4EA"/><circle cx="110.00000000000001" cy="-14.999999999999996" r="6" fill="#FBF4EA"/></g>
      <path d="M-50,0 L-50,-69.75 C-50,-131.75 -16,-155 0,-155 C16,-155 50,-131.75 50,-69.75 L50,0 Q0,22 -50,0 Z" fill="none" stroke="#000" stroke-opacity=".08" stroke-width="2"/>
      <path d="M-22,-38.75 C-24,-93 -14.000000000000002,-127.1 -4,-139.5" stroke="#fff" stroke-opacity=".55" stroke-width="7.000000000000001" stroke-linecap="round" fill="none"/>
    </g><g transform="translate(640,488.4) rotate(14)">
      <rect x="-56.32" y="-172.44480000000001" width="112.64" height="960" rx="56.32" fill="#F2D2BC"/>
      <rect x="-56.32" y="-172.44480000000001" width="24.7808" height="960" rx="12.3904" fill="#000" opacity=".05"/>
      <clipPath id="terracotta-dotsn4"><path d="M-44,0 L-44,-61.38 C-44,-115.94 -14.08,-136.4 0,-136.4 C14.08,-136.4 44,-115.94 44,-61.38 L44,0 Q0,19.36 -44,0 Z"/></clipPath>
      <g clip-path="url(#terracotta-dotsn4)"><rect x="-200" y="-400" width="400" height="500" fill="#C9603F"/><circle cx="-75.68" cy="-136.4" r="5.279999999999999" fill="#FBF4EA"/><circle cx="-51.04" cy="-136.4" r="5.279999999999999" fill="#FBF4EA"/><circle cx="-26.4" cy="-136.4" r="5.279999999999999" fill="#FBF4EA"/><circle cx="-1.759999999999998" cy="-136.4" r="5.279999999999999" fill="#FBF4EA"/><circle cx="22.880000000000003" cy="-136.4" r="5.279999999999999" fill="#FBF4EA"/><circle cx="47.52" cy="-136.4" r="5.279999999999999" fill="#FBF4EA"/><circle cx="72.16" cy="-136.4" r="5.279999999999999" fill="#FBF4EA"/><circle cx="96.80000000000001" cy="-136.4" r="5.279999999999999" fill="#FBF4EA"/><circle cx="-75.68" cy="-111.76" r="5.279999999999999" fill="#FBF4EA"/><circle cx="-51.04" cy="-111.76" r="5.279999999999999" fill="#FBF4EA"/><circle cx="-26.4" cy="-111.76" r="5.279999999999999" fill="#FBF4EA"/><circle cx="-1.759999999999998" cy="-111.76" r="5.279999999999999" fill="#FBF4EA"/><circle cx="22.880000000000003" cy="-111.76" r="5.279999999999999" fill="#FBF4EA"/><circle cx="47.52" cy="-111.76" r="5.279999999999999" fill="#FBF4EA"/><circle cx="72.16" cy="-111.76" r="5.279999999999999" fill="#FBF4EA"/><circle cx="96.80000000000001" cy="-111.76" r="5.279999999999999" fill="#FBF4EA"/><circle cx="-75.68" cy="-87.12" r="5.279999999999999" fill="#FBF4EA"/><circle cx="-51.04" cy="-87.12" r="5.279999999999999" fill="#FBF4EA"/><circle cx="-26.4" cy="-87.12" r="5.279999999999999" fill="#FBF4EA"/><circle cx="-1.759999999999998" cy="-87.12" r="5.279999999999999" fill="#FBF4EA"/><circle cx="22.880000000000003" cy="-87.12" r="5.279999999999999" fill="#FBF4EA"/><circle cx="47.52" cy="-87.12" r="5.279999999999999" fill="#FBF4EA"/><circle cx="72.16" cy="-87.12" r="5.279999999999999" fill="#FBF4EA"/><circle cx="96.80000000000001" cy="-87.12" r="5.279999999999999" fill="#FBF4EA"/><circle cx="-75.68" cy="-62.480000000000004" r="5.279999999999999" fill="#FBF4EA"/><circle cx="-51.04" cy="-62.480000000000004" r="5.279999999999999" fill="#FBF4EA"/><circle cx="-26.4" cy="-62.480000000000004" r="5.279999999999999" fill="#FBF4EA"/><circle cx="-1.759999999999998" cy="-62.480000000000004" r="5.279999999999999" fill="#FBF4EA"/><circle cx="22.880000000000003" cy="-62.480000000000004" r="5.279999999999999" fill="#FBF4EA"/><circle cx="47.52" cy="-62.480000000000004" r="5.279999999999999" fill="#FBF4EA"/><circle cx="72.16" cy="-62.480000000000004" r="5.279999999999999" fill="#FBF4EA"/><circle cx="96.80000000000001" cy="-62.480000000000004" r="5.279999999999999" fill="#FBF4EA"/><circle cx="-75.68" cy="-37.84" r="5.279999999999999" fill="#FBF4EA"/><circle cx="-51.04" cy="-37.84" r="5.279999999999999" fill="#FBF4EA"/><circle cx="-26.4" cy="-37.84" r="5.279999999999999" fill="#FBF4EA"/><circle cx="-1.759999999999998" cy="-37.84" r="5.279999999999999" fill="#FBF4EA"/><circle cx="22.880000000000003" cy="-37.84" r="5.279999999999999" fill="#FBF4EA"/><circle cx="47.52" cy="-37.84" r="5.279999999999999" fill="#FBF4EA"/><circle cx="72.16" cy="-37.84" r="5.279999999999999" fill="#FBF4EA"/><circle cx="96.80000000000001" cy="-37.84" r="5.279999999999999" fill="#FBF4EA"/><circle cx="-75.68" cy="-13.200000000000003" r="5.279999999999999" fill="#FBF4EA"/><circle cx="-51.04" cy="-13.200000000000003" r="5.279999999999999" fill="#FBF4EA"/><circle cx="-26.4" cy="-13.200000000000003" r="5.279999999999999" fill="#FBF4EA"/><circle cx="-1.759999999999998" cy="-13.200000000000003" r="5.279999999999999" fill="#FBF4EA"/><circle cx="22.880000000000003" cy="-13.200000000000003" r="5.279999999999999" fill="#FBF4EA"/><circle cx="47.52" cy="-13.200000000000003" r="5.279999999999999" fill="#FBF4EA"/><circle cx="72.16" cy="-13.200000000000003" r="5.279999999999999" fill="#FBF4EA"/><circle cx="96.80000000000001" cy="-13.200000000000003" r="5.279999999999999" fill="#FBF4EA"/></g>
      <path d="M-44,0 L-44,-61.38 C-44,-115.94 -14.08,-136.4 0,-136.4 C14.08,-136.4 44,-115.94 44,-61.38 L44,0 Q0,19.36 -44,0 Z" fill="none" stroke="#000" stroke-opacity=".08" stroke-width="2"/>
      <path d="M-19.36,-34.1 C-21.119999999999997,-81.84 -12.32,-111.848 -3.52,-122.76" stroke="#fff" stroke-opacity=".55" stroke-width="6.16" stroke-linecap="round" fill="none"/>
    </g>
</svg>